<?xml version="1.0" encoding="UTF-8" standalone="no"?>
<!DOCTYPE svg PUBLIC "-//W3C//DTD SVG 1.1//EN" "http://www.w3.org/Graphics/SVG/1.1/DTD/svg11.dtd">
<svg width="100%" height="100%" viewBox="0 0 1039 1039" version="1.1" xmlns="http://www.w3.org/2000/svg" xmlns:xlink="http://www.w3.org/1999/xlink" xml:space="preserve" xmlns:serif="http://www.serif.com/" style="fill-rule:evenodd;clip-rule:evenodd;stroke-linejoin:round;stroke-miterlimit:2;">
    <g id="hexagon" transform="matrix(1.07254,0,0,1.07254,-78.3305,-101.239)">
        <path d="M557.395,96.459L975.074,337.606L975.074,819.901L557.395,1061.05L139.715,819.901L139.715,337.606L557.395,96.459Z" style="fill:rgb(207,207,207);"/>
    </g>
    <g transform="matrix(1,0,0,1,-6.88992,5.52619)">
        <g transform="matrix(600,0,0,600,407.005,716.267)">
            <path d="M0.377,-0.498C0.377,-0.451 0.363,-0.409 0.335,-0.373C0.331,-0.368 0.305,-0.342 0.255,-0.292C0.225,-0.264 0.209,-0.235 0.206,-0.207C0.205,-0.2 0.205,-0.193 0.204,-0.186C0.203,-0.18 0.198,-0.176 0.19,-0.173C0.181,-0.17 0.173,-0.168 0.168,-0.168C0.151,-0.168 0.142,-0.168 0.139,-0.169C0.131,-0.172 0.127,-0.18 0.127,-0.193C0.127,-0.232 0.134,-0.263 0.147,-0.286C0.168,-0.314 0.19,-0.342 0.211,-0.371C0.236,-0.404 0.249,-0.437 0.249,-0.468C0.249,-0.498 0.24,-0.522 0.223,-0.541C0.205,-0.56 0.182,-0.569 0.152,-0.569C0.128,-0.569 0.101,-0.56 0.072,-0.543C0.042,-0.527 0.028,-0.518 0.029,-0.518C0.019,-0.518 0.014,-0.549 0.014,-0.612C0.014,-0.616 0.019,-0.622 0.029,-0.629C0.08,-0.664 0.134,-0.682 0.19,-0.682C0.245,-0.682 0.29,-0.665 0.325,-0.631C0.36,-0.597 0.377,-0.553 0.377,-0.498ZM0.238,-0.055C0.238,-0.037 0.232,-0.021 0.22,-0.007C0.208,0.006 0.193,0.013 0.175,0.013C0.157,0.013 0.142,0.006 0.131,-0.007C0.119,-0.021 0.113,-0.037 0.113,-0.055C0.113,-0.073 0.119,-0.089 0.13,-0.102C0.142,-0.115 0.157,-0.122 0.175,-0.122C0.193,-0.122 0.208,-0.115 0.22,-0.102C0.232,-0.089 0.238,-0.073 0.238,-0.055Z" style="fill:rgb(52,20,7);fill-rule:nonzero;"/>
        </g>
        <g id="hexagon1" serif:id="hexagon" transform="matrix(7.06632e-18,0.115402,-0.115402,7.06632e-18,578.021,619.156)">
            <path d="M557.395,96.459L975.074,337.606L975.074,819.901L557.395,1061.05L139.715,819.901L139.715,337.606L557.395,96.459Z" style="fill:rgb(207,207,207);"/>
        </g>
        <g id="hexagon2" serif:id="hexagon" transform="matrix(5.48397e-18,0.08956,-0.08956,5.48397e-18,558.829,636.194)">
            <path d="M557.395,96.459L975.074,337.606L975.074,819.901L557.395,1061.05L139.715,819.901L139.715,337.606L557.395,96.459Z" style="fill:rgb(52,20,7);"/>
        </g>
        <g transform="matrix(1.0022,0,0,0.805733,5.62075,114.484)">
            <rect x="476.576" y="605.609" width="46.237" height="16.414" style="fill:rgb(52,20,7);"/>
        </g>
    </g>
</svg>
